<?xml version="1.0" encoding="UTF-8"?>
<svg xmlns="http://www.w3.org/2000/svg" xmlns:xlink="http://www.w3.org/1999/xlink" width="1024pt" height="1024pt" viewBox="0 0 1024 1024" version="1.1">
<g id="surface1">
<path style="fill-rule:evenodd;fill:rgb(100%,100%,100%);fill-opacity:1;stroke-width:1.5;stroke-linecap:butt;stroke-linejoin:round;stroke:rgb(0%,0%,0%);stroke-opacity:1;stroke-miterlimit:4;" d="M 9.000034 35.999966 C 12.390003 35.030079 19.110031 36.429977 22.5 33.999939 C 25.889969 36.429977 32.609997 35.030079 35.999966 35.999966 C 35.999966 35.999966 37.649975 36.540012 38.99992 37.999992 C 38.319969 38.970051 37.350082 38.989964 35.999966 38.500042 C 32.609997 37.529984 25.889969 38.959923 22.5 37.499943 C 19.110031 38.959923 12.390003 37.529984 9.000034 38.500042 C 7.645969 38.989964 6.676941 38.970051 6.00008 37.999992 C 7.353973 36.060047 9.000034 35.999966 9.000034 35.999966 Z M 9.000034 35.999966 " transform="matrix(22.755556,0,0,22.755556,0,0)"/>
<path style="fill-rule:evenodd;fill:rgb(100%,100%,100%);fill-opacity:1;stroke-width:1.5;stroke-linecap:butt;stroke-linejoin:round;stroke:rgb(0%,0%,0%);stroke-opacity:1;stroke-miterlimit:4;" d="M 14.999943 32.000084 C 17.500019 34.499989 27.499981 34.499989 30.000057 32.000084 C 30.499935 30.499935 30.000057 30.000057 30.000057 30.000057 C 30.000057 27.499981 27.499981 26.000004 27.499981 26.000004 C 33.000011 24.500027 33.500061 14.500065 22.5 10.500011 C 11.499939 14.500065 11.999989 24.500027 17.500019 26.000004 C 17.500019 26.000004 14.999943 27.499981 14.999943 30.000057 C 14.999943 30.000057 14.500065 30.499935 14.999943 32.000084 Z M 14.999943 32.000084 " transform="matrix(22.755556,0,0,22.755556,0,0)"/>
<path style="fill-rule:evenodd;fill:rgb(100%,100%,100%);fill-opacity:1;stroke-width:1.5;stroke-linecap:butt;stroke-linejoin:round;stroke:rgb(0%,0%,0%);stroke-opacity:1;stroke-miterlimit:4;" d="M 25.000076 7.999935 C 25.000076 9.380779 23.880672 10.500011 22.5 10.500011 C 21.119328 10.500011 19.999924 9.380779 19.999924 7.999935 C 19.999924 6.619263 21.119328 5.500031 22.5 5.500031 C 23.880672 5.500031 25.000076 6.619263 25.000076 7.999935 Z M 25.000076 7.999935 " transform="matrix(22.755556,0,0,22.755556,0,0)"/>
<path style="fill:none;stroke-width:1.5;stroke-linecap:round;stroke-linejoin:miter;stroke:rgb(0%,0%,0%);stroke-opacity:1;stroke-miterlimit:4;" d="M 17.500019 26.000004 L 27.499981 26.000004 M 14.999943 30.000057 L 30.000057 30.000057 M 22.5 15.499992 L 22.5 20.499973 M 19.999924 18.000069 L 25.000076 18.000069 " transform="matrix(22.755556,0,0,22.755556,0,0)"/>
</g>
</svg>
