<?xml version="1.0" encoding="UTF-8"?>
<svg xmlns="http://www.w3.org/2000/svg" xmlns:xlink="http://www.w3.org/1999/xlink" width="1024pt" height="341pt" viewBox="0 0 1024 341" version="1.1">
<g id="surface1">
<path style="fill:none;stroke-width:1.5;stroke-linecap:round;stroke-linejoin:miter;stroke:rgb(0%,0%,0%);stroke-opacity:1;stroke-miterlimit:4;" d="M 22.499657 11.63043 L 22.499657 6.000275 " transform="matrix(3.792593,0,0,3.788889,0,0)"/>
<path style="fill:none;stroke-width:1.5;stroke-linecap:round;stroke-linejoin:miter;stroke:rgb(0%,0%,0%);stroke-opacity:1;stroke-miterlimit:4;" d="M 19.999924 8.000367 L 25.00042 8.000367 " transform="matrix(3.792593,0,0,3.788889,0,0)"/>
<path style="fill-rule:evenodd;fill:rgb(100%,100%,100%);fill-opacity:1;stroke-width:1.5;stroke-linecap:butt;stroke-linejoin:miter;stroke:rgb(0%,0%,0%);stroke-opacity:1;stroke-miterlimit:4;" d="M 22.499657 25.000115 C 22.499657 25.000115 26.999588 17.499771 25.499954 14.499633 C 25.499954 14.499633 24.499855 11.999519 22.499657 11.999519 C 20.500488 11.999519 19.500389 14.499633 19.500389 14.499633 C 17.999725 17.499771 22.499657 25.000115 22.499657 25.000115 " transform="matrix(3.792593,0,0,3.788889,0,0)"/>
<path style="fill-rule:evenodd;fill:rgb(100%,100%,100%);fill-opacity:1;stroke-width:1.5;stroke-linecap:round;stroke-linejoin:round;stroke:rgb(0%,0%,0%);stroke-opacity:1;stroke-miterlimit:4;" d="M 11.499596 36.999633 C 16.999626 40.499794 26.999588 40.499794 32.499619 36.999633 L 32.499619 30.000344 C 32.499619 30.000344 41.500511 25.500137 38.500214 19.499863 C 34.499817 12.999565 25.00042 15.999702 22.499657 23.500046 L 22.499657 27.000206 L 22.499657 23.500046 C 18.999825 15.999702 9.500427 12.999565 6.50013 19.499863 C 3.499832 25.500137 11.499596 29.500321 11.499596 29.500321 Z M 11.499596 36.999633 " transform="matrix(3.792593,0,0,3.788889,0,0)"/>
<path style="fill:none;stroke-width:1.5;stroke-linecap:round;stroke-linejoin:round;stroke:rgb(0%,0%,0%);stroke-opacity:1;stroke-miterlimit:4;" d="M 11.499596 30.000344 C 16.999626 27.000206 26.999588 27.000206 32.499619 30.000344 " transform="matrix(3.792593,0,0,3.788889,0,0)"/>
<path style="fill:none;stroke-width:1.5;stroke-linecap:round;stroke-linejoin:round;stroke:rgb(0%,0%,0%);stroke-opacity:1;stroke-miterlimit:4;" d="M 11.499596 33.500504 C 16.999626 30.500367 26.999588 30.500367 32.499619 33.500504 " transform="matrix(3.792593,0,0,3.788889,0,0)"/>
<path style="fill:none;stroke-width:1.5;stroke-linecap:round;stroke-linejoin:round;stroke:rgb(0%,0%,0%);stroke-opacity:1;stroke-miterlimit:4;" d="M 11.499596 36.999633 C 16.999626 33.999496 26.999588 33.999496 32.499619 36.999633 " transform="matrix(3.792593,0,0,3.788889,0,0)"/>
<path style="fill-rule:evenodd;fill:rgb(100%,100%,100%);fill-opacity:1;stroke-width:1.5;stroke-linecap:round;stroke-linejoin:round;stroke:rgb(0%,0%,0%);stroke-opacity:1;stroke-miterlimit:4;" d="M 9.000107 12.999519 C 9.000107 14.104724 8.105064 14.999611 6.999908 14.999611 C 5.895782 14.999611 4.99971 14.104724 4.99971 12.999519 C 4.99971 11.895345 5.895782 11.000458 6.999908 11.000458 C 8.105064 11.000458 9.000107 11.895345 9.000107 12.999519 Z M 9.000107 12.999519 " transform="matrix(3.792593,0,0,3.788889,166.874074,-3.788889)"/>
<path style="fill-rule:evenodd;fill:rgb(100%,100%,100%);fill-opacity:1;stroke-width:1.5;stroke-linecap:round;stroke-linejoin:round;stroke:rgb(0%,0%,0%);stroke-opacity:1;stroke-miterlimit:4;" d="M 9.000198 13.000344 C 9.000198 14.104518 8.104126 15.000435 7 15.000435 C 5.895874 15.000435 4.999802 14.104518 4.999802 13.000344 C 4.999802 11.895138 5.895874 11.000252 7 11.000252 C 8.104126 11.000252 9.000198 11.895138 9.000198 13.000344 Z M 9.000198 13.000344 " transform="matrix(3.792593,0,0,3.788889,229.451852,-20.838889)"/>
<path style="fill-rule:evenodd;fill:rgb(100%,100%,100%);fill-opacity:1;stroke-width:1.5;stroke-linecap:round;stroke-linejoin:round;stroke:rgb(0%,0%,0%);stroke-opacity:1;stroke-miterlimit:4;" d="M 9.00029 12.999519 C 9.00029 14.104724 8.104218 14.999611 7.000092 14.999611 C 5.894936 14.999611 4.999893 14.104724 4.999893 12.999519 C 4.999893 11.895345 5.894936 11.000458 7.000092 11.000458 C 8.104218 11.000458 9.00029 11.895345 9.00029 12.999519 Z M 9.00029 12.999519 " transform="matrix(3.792593,0,0,3.788889,292.02963,-3.788889)"/>
<path style="fill-rule:evenodd;fill:rgb(100%,100%,100%);fill-opacity:1;stroke-width:1.5;stroke-linecap:round;stroke-linejoin:round;stroke:rgb(0%,0%,0%);stroke-opacity:1;stroke-miterlimit:4;" d="M 8.99987 13.000389 C 8.99987 14.104564 8.104828 15.000481 6.999672 15.000481 C 5.895546 15.000481 5.000504 14.104564 5.000504 13.000389 C 5.000504 11.895184 5.895546 11.000298 6.999672 11.000298 C 8.104828 11.000298 8.99987 11.895184 8.99987 13.000389 Z M 8.99987 13.000389 " transform="matrix(3.792593,0,0,3.788889,197.214815,-17.05)"/>
<path style="fill-rule:evenodd;fill:rgb(100%,100%,100%);fill-opacity:1;stroke-width:1.5;stroke-linecap:round;stroke-linejoin:round;stroke:rgb(0%,0%,0%);stroke-opacity:1;stroke-miterlimit:4;" d="M 8.999496 13.000412 C 8.999496 14.104587 8.104454 15.000504 7.000328 15.000504 C 5.895172 15.000504 5.00013 14.104587 5.00013 13.000412 C 5.00013 11.895207 5.895172 11.000321 7.000328 11.000321 C 8.104454 11.000321 8.999496 11.895207 8.999496 13.000412 Z M 8.999496 13.000412 " transform="matrix(3.792593,0,0,3.788889,261.688889,-15.155556)"/>
<path style="fill-rule:evenodd;fill:rgb(100%,100%,100%);fill-opacity:1;stroke-width:1.5;stroke-linecap:butt;stroke-linejoin:round;stroke:rgb(0%,0%,0%);stroke-opacity:1;stroke-miterlimit:4;" d="M 9.000206 26.00016 C 17.499504 24.500092 30.000229 24.500092 35.999794 26.00016 L 37.999992 13.999611 L 31.000328 25.000115 L 31.000328 11.000504 L 25.500298 24.500092 L 22.5 9.500435 L 19.499702 24.500092 L 13.999672 10.500481 L 13.999672 25.000115 L 7.000008 13.999611 Z M 9.000206 26.00016 " transform="matrix(3.792593,0,0,3.788889,170.666667,0)"/>
<path style="fill-rule:evenodd;fill:rgb(100%,100%,100%);fill-opacity:1;stroke-width:1.5;stroke-linecap:butt;stroke-linejoin:round;stroke:rgb(0%,0%,0%);stroke-opacity:1;stroke-miterlimit:4;" d="M 9.000206 26.00016 C 9.000206 28.000252 10.49984 28.000252 11.499939 30.000344 C 12.500038 31.500412 12.500038 31.000389 12.000504 33.500504 C 10.49984 34.499519 10.49984 35.999588 10.49984 35.999588 C 9.000206 37.499656 11.000404 38.499702 11.000404 38.499702 C 17.499504 39.499748 27.500496 39.499748 33.999596 38.499702 C 33.999596 38.499702 35.500259 37.499656 33.999596 35.999588 C 33.999596 35.999588 34.50016 34.499519 32.999496 33.500504 C 32.499962 31.000389 32.499962 31.500412 33.500061 30.000344 C 34.50016 28.000252 35.999794 28.000252 35.999794 26.00016 C 27.500496 24.500092 17.499504 24.500092 9.000206 26.00016 Z M 9.000206 26.00016 " transform="matrix(3.792593,0,0,3.788889,170.666667,0)"/>
<path style="fill:none;stroke-width:1.5;stroke-linecap:round;stroke-linejoin:round;stroke:rgb(0%,0%,0%);stroke-opacity:1;stroke-miterlimit:4;" d="M 11.499939 30.000344 C 14.999771 29.000298 30.000229 29.000298 33.500061 30.000344 " transform="matrix(3.792593,0,0,3.788889,170.666667,0)"/>
<path style="fill:none;stroke-width:1.5;stroke-linecap:round;stroke-linejoin:round;stroke:rgb(0%,0%,0%);stroke-opacity:1;stroke-miterlimit:4;" d="M 12.000504 33.500504 C 18.000069 32.500458 26.999931 32.500458 32.999496 33.500504 " transform="matrix(3.792593,0,0,3.788889,170.666667,0)"/>
<path style="fill-rule:evenodd;fill:rgb(100%,100%,100%);fill-opacity:1;stroke-width:1.5;stroke-linecap:butt;stroke-linejoin:round;stroke:rgb(0%,0%,0%);stroke-opacity:1;stroke-miterlimit:4;" d="M 8.999519 35.999588 C 12.390175 35.030471 19.109688 36.429504 22.500343 33.999496 C 25.889969 36.429504 32.610512 35.030471 36.000137 35.999588 C 36.000137 35.999588 37.650146 36.539819 39.000435 37.999679 C 38.319626 38.969827 37.350426 38.990446 36.000137 38.499702 C 32.610512 37.529555 25.889969 38.959517 22.500343 37.499656 C 19.109688 38.959517 12.390175 37.529555 8.999519 38.499702 C 7.646141 38.990446 6.676941 38.969827 6.000252 37.999679 C 7.35363 36.060415 8.999519 35.999588 8.999519 35.999588 Z M 8.999519 35.999588 " transform="matrix(3.792593,0,0,3.788889,341.333333,0)"/>
<path style="fill-rule:evenodd;fill:rgb(100%,100%,100%);fill-opacity:1;stroke-width:1.5;stroke-linecap:butt;stroke-linejoin:round;stroke:rgb(0%,0%,0%);stroke-opacity:1;stroke-miterlimit:4;" d="M 15.000114 32.000435 C 17.499847 34.499519 27.499809 34.499519 29.999542 32.000435 C 30.500107 30.500367 29.999542 30.000344 29.999542 30.000344 C 29.999542 27.500229 27.499809 26.00016 27.499809 26.00016 C 32.99984 24.500092 33.500404 14.499633 22.500343 10.500481 C 11.500282 14.499633 11.999817 24.500092 17.499847 26.00016 C 17.499847 26.00016 15.000114 27.500229 15.000114 30.000344 C 15.000114 30.000344 14.49955 30.500367 15.000114 32.000435 Z M 15.000114 32.000435 " transform="matrix(3.792593,0,0,3.788889,341.333333,0)"/>
<path style="fill-rule:evenodd;fill:rgb(100%,100%,100%);fill-opacity:1;stroke-width:1.5;stroke-linecap:butt;stroke-linejoin:round;stroke:rgb(0%,0%,0%);stroke-opacity:1;stroke-miterlimit:4;" d="M 25.000076 8.000367 C 25.000076 9.380842 23.880501 10.500481 22.500343 10.500481 C 21.119156 10.500481 19.99958 9.380842 19.99958 8.000367 C 19.99958 6.61886 21.119156 5.500252 22.500343 5.500252 C 23.880501 5.500252 25.000076 6.61886 25.000076 8.000367 Z M 25.000076 8.000367 " transform="matrix(3.792593,0,0,3.788889,341.333333,0)"/>
<path style="fill:none;stroke-width:1.5;stroke-linecap:round;stroke-linejoin:miter;stroke:rgb(0%,0%,0%);stroke-opacity:1;stroke-miterlimit:4;" d="M 17.499847 26.00016 L 27.499809 26.00016 M 15.000114 30.000344 L 29.999542 30.000344 M 22.500343 15.499679 L 22.500343 20.499908 M 19.99958 17.999794 L 25.000076 17.999794 " transform="matrix(3.792593,0,0,3.788889,341.333333,0)"/>
<path style="fill-rule:evenodd;fill:rgb(100%,100%,100%);fill-opacity:1;stroke-width:1.5;stroke-linecap:round;stroke-linejoin:round;stroke:rgb(0%,0%,0%);stroke-opacity:1;stroke-miterlimit:4;" d="M 22.000122 10.000458 C 32.499619 11.000504 38.500214 17.999794 37.999649 38.999725 L 15.000458 38.999725 C 15.000458 30.000344 25.00042 32.500458 23.000221 17.999794 " transform="matrix(3.792593,0,0,3.788889,512,0)"/>
<path style="fill-rule:evenodd;fill:rgb(100%,100%,100%);fill-opacity:1;stroke-width:1.5;stroke-linecap:round;stroke-linejoin:round;stroke:rgb(0%,0%,0%);stroke-opacity:1;stroke-miterlimit:4;" d="M 24.00032 17.999794 C 24.380379 20.910236 18.449821 25.370235 15.999527 27.000206 C 13.000259 29.000298 13.180504 31.33958 11.000061 31.000389 C 9.957733 30.06014 12.410088 27.960044 11.000061 28.000252 C 9.999962 28.000252 11.189575 29.230205 9.999962 30.000344 C 8.999863 30.000344 5.997505 31.000389 5.999565 26.00016 C 5.999565 24.000069 12.00016 13.999611 12.00016 13.999611 C 12.00016 13.999611 13.890152 12.099523 14.000359 10.500481 C 13.270111 9.50559 13.499794 8.500389 13.499794 7.500344 C 14.499893 6.500298 16.500092 10.000458 16.500092 10.000458 L 18.50029 10.000458 C 18.50029 10.000458 19.279976 8.007583 21.000023 7.000321 C 22.000122 7.000321 22.000122 10.000458 22.000122 10.000458 " transform="matrix(3.792593,0,0,3.788889,512,0)"/>
<path style="fill-rule:evenodd;fill:rgb(0%,0%,0%);fill-opacity:1;stroke-width:1.5;stroke-linecap:round;stroke-linejoin:round;stroke:rgb(0%,0%,0%);stroke-opacity:1;stroke-miterlimit:4;" d="M 9.500427 25.500137 C 9.500427 25.776439 9.275894 26.00016 8.999863 26.00016 C 8.723831 26.00016 8.500328 25.776439 8.500328 25.500137 C 8.500328 25.223836 8.723831 25.000115 8.999863 25.000115 C 9.275894 25.000115 9.500427 25.223836 9.500427 25.500137 Z M 9.500427 25.500137 " transform="matrix(3.792593,0,0,3.788889,512,0)"/>
<path style="fill-rule:evenodd;fill:rgb(0%,0%,0%);fill-opacity:1;stroke-width:1.5;stroke-linecap:round;stroke-linejoin:round;stroke:rgb(0%,0%,0%);stroke-opacity:1;stroke-miterlimit:4;" d="M 15.000545 15.499924 C 14.999867 16.328905 14.77594 16.999871 14.49992 16.999709 C 14.2239 16.999547 14.000572 16.328471 14.000357 15.500005 C 14.000143 14.67154 14.223554 13.99968 14.499574 13.999842 C 14.775595 14.000005 15.00033 14.671458 15.000545 15.499924 Z M 15.000545 15.499924 " transform="matrix(3.284385,1.894444,-1.896296,3.281178,548.7616,-19.599922)"/>
<path style="fill-rule:evenodd;fill:rgb(100%,100%,100%);fill-opacity:1;stroke-width:1.5;stroke-linecap:butt;stroke-linejoin:round;stroke:rgb(0%,0%,0%);stroke-opacity:1;stroke-miterlimit:4;" d="M 9.000206 38.999725 L 35.999794 38.999725 L 35.999794 35.999588 L 9.000206 35.999588 Z M 9.000206 38.999725 " transform="matrix(3.792593,0,0,3.788889,682.666667,0)"/>
<path style="fill-rule:evenodd;fill:rgb(100%,100%,100%);fill-opacity:1;stroke-width:1.5;stroke-linecap:butt;stroke-linejoin:round;stroke:rgb(0%,0%,0%);stroke-opacity:1;stroke-miterlimit:4;" d="M 12.000504 35.999588 L 12.000504 32.000435 L 32.999496 32.000435 L 32.999496 35.999588 Z M 12.000504 35.999588 " transform="matrix(3.792593,0,0,3.788889,682.666667,0)"/>
<path style="fill-rule:evenodd;fill:rgb(100%,100%,100%);fill-opacity:1;stroke-width:1.5;stroke-linecap:butt;stroke-linejoin:round;stroke:rgb(0%,0%,0%);stroke-opacity:1;stroke-miterlimit:4;" d="M 11.000404 13.999611 L 11.000404 9.000412 L 14.999771 9.000412 L 14.999771 11.000504 L 20.000267 11.000504 L 20.000267 9.000412 L 24.999733 9.000412 L 24.999733 11.000504 L 30.000229 11.000504 L 30.000229 9.000412 L 33.999596 9.000412 L 33.999596 13.999611 " transform="matrix(3.792593,0,0,3.788889,682.666667,0)"/>
<path style="fill-rule:evenodd;fill:rgb(100%,100%,100%);fill-opacity:1;stroke-width:1.5;stroke-linecap:round;stroke-linejoin:round;stroke:rgb(0%,0%,0%);stroke-opacity:1;stroke-miterlimit:4;" d="M 33.999596 13.999611 L 31.000328 16.999748 L 13.999672 16.999748 L 11.000404 13.999611 " transform="matrix(3.792593,0,0,3.788889,682.666667,0)"/>
<path style="fill-rule:evenodd;fill:rgb(100%,100%,100%);fill-opacity:1;stroke-width:1.5;stroke-linecap:butt;stroke-linejoin:miter;stroke:rgb(0%,0%,0%);stroke-opacity:1;stroke-miterlimit:4;" d="M 31.000328 16.999748 L 31.000328 29.500321 L 13.999672 29.500321 L 13.999672 16.999748 " transform="matrix(3.792593,0,0,3.788889,682.666667,0)"/>
<path style="fill-rule:evenodd;fill:rgb(100%,100%,100%);fill-opacity:1;stroke-width:1.5;stroke-linecap:round;stroke-linejoin:round;stroke:rgb(0%,0%,0%);stroke-opacity:1;stroke-miterlimit:4;" d="M 31.000328 29.500321 L 32.499962 32.000435 L 12.500038 32.000435 L 13.999672 29.500321 " transform="matrix(3.792593,0,0,3.788889,682.666667,0)"/>
<path style="fill:none;stroke-width:1.5;stroke-linecap:round;stroke-linejoin:miter;stroke:rgb(0%,0%,0%);stroke-opacity:1;stroke-miterlimit:4;" d="M 11.000404 13.999611 L 33.999596 13.999611 " transform="matrix(3.792593,0,0,3.788889,682.666667,0)"/>
<path style="fill-rule:nonzero;fill:rgb(100%,100%,100%);fill-opacity:1;stroke-width:1.5;stroke-linecap:round;stroke-linejoin:miter;stroke:rgb(0%,0%,0%);stroke-opacity:1;stroke-miterlimit:4;" d="M 21.999779 9.000412 C 19.790497 9.000412 18.000412 10.790185 18.000412 12.999565 C 18.000412 13.890327 18.289833 14.709952 18.780098 15.380086 C 16.830368 16.499725 15.499649 18.589512 15.499649 20.999931 C 15.499649 23.029921 16.44001 24.840313 17.909775 26.030059 C 14.910507 27.089901 10.500183 31.579797 10.500183 39.499748 L 33.500404 39.499748 C 33.500404 31.579797 29.09008 27.089901 26.089783 26.030059 C 27.559547 24.840313 28.499908 23.029921 28.499908 20.999931 C 28.499908 18.589512 27.170219 16.499725 25.22049 15.380086 C 25.709724 14.709952 26.000175 13.890327 26.000175 12.999565 C 26.000175 10.790185 24.210091 9.000412 21.999779 9.000412 Z M 21.999779 9.000412 " transform="matrix(3.792593,0,0,3.788889,853.333333,0)"/>
<path style="fill:none;stroke-width:1.5;stroke-linecap:round;stroke-linejoin:miter;stroke:rgb(0%,0%,0%);stroke-opacity:1;stroke-miterlimit:4;" d="M 22.499657 11.63043 L 22.499657 6.000275 " transform="matrix(3.792593,0,0,3.788889,0,170.5)"/>
<path style="fill-rule:evenodd;fill:rgb(0%,0%,0%);fill-opacity:1;stroke-width:1.5;stroke-linecap:butt;stroke-linejoin:miter;stroke:rgb(0%,0%,0%);stroke-opacity:1;stroke-miterlimit:4;" d="M 22.499657 25.000115 C 22.499657 25.000115 26.999588 17.499771 25.499954 14.499633 C 25.499954 14.499633 24.499855 11.999519 22.499657 11.999519 C 20.500488 11.999519 19.500389 14.499633 19.500389 14.499633 C 17.999725 17.499771 22.499657 25.000115 22.499657 25.000115 " transform="matrix(3.792593,0,0,3.788889,0,170.5)"/>
<path style="fill-rule:evenodd;fill:rgb(0%,0%,0%);fill-opacity:1;stroke-width:1.5;stroke-linecap:round;stroke-linejoin:round;stroke:rgb(0%,0%,0%);stroke-opacity:1;stroke-miterlimit:4;" d="M 11.499596 36.999633 C 16.999626 40.499794 26.999588 40.499794 32.499619 36.999633 L 32.499619 30.000344 C 32.499619 30.000344 41.500511 25.500137 38.500214 19.499863 C 34.499817 12.999565 25.00042 15.999702 22.499657 23.500046 L 22.499657 27.000206 L 22.499657 23.500046 C 18.999825 15.999702 9.500427 12.999565 6.50013 19.499863 C 3.499832 25.500137 11.499596 29.500321 11.499596 29.500321 Z M 11.499596 36.999633 " transform="matrix(3.792593,0,0,3.788889,0,170.5)"/>
<path style="fill:none;stroke-width:1.5;stroke-linecap:round;stroke-linejoin:miter;stroke:rgb(0%,0%,0%);stroke-opacity:1;stroke-miterlimit:4;" d="M 19.999924 8.000367 L 25.00042 8.000367 " transform="matrix(3.792593,0,0,3.788889,0,170.5)"/>
<path style="fill:none;stroke-width:1.5;stroke-linecap:round;stroke-linejoin:round;stroke:rgb(100%,100%,100%);stroke-opacity:1;stroke-miterlimit:4;" d="M 32.000084 29.500321 C 32.000084 29.500321 40.500412 25.500137 38.029518 19.850394 C 34.149628 13.999611 25.00042 17.999794 22.499657 24.500092 L 22.509956 26.600188 L 22.499657 24.500092 C 19.999924 17.999794 9.906235 13.999611 6.996574 19.850394 C 4.499931 25.500137 11.849785 28.849775 11.849785 28.849775 " transform="matrix(3.792593,0,0,3.788889,0,170.5)"/>
<path style="fill:none;stroke-width:1.5;stroke-linecap:round;stroke-linejoin:round;stroke:rgb(100%,100%,100%);stroke-opacity:1;stroke-miterlimit:4;" d="M 11.499596 30.000344 C 16.999626 27.000206 26.999588 27.000206 32.499619 30.000344 M 11.499596 33.500504 C 16.999626 30.500367 26.999588 30.500367 32.499619 33.500504 M 11.499596 36.999633 C 16.999626 33.999496 26.999588 33.999496 32.499619 36.999633 " transform="matrix(3.792593,0,0,3.788889,0,170.5)"/>
<path style=" stroke:none;fill-rule:evenodd;fill:rgb(0%,0%,0%);fill-opacity:1;" d="M 203.851562 215.964844 C 203.851562 221.722656 199.183594 226.386719 193.421875 226.386719 C 187.660156 226.386719 182.992188 221.722656 182.992188 215.964844 C 182.992188 210.210938 187.660156 205.546875 193.421875 205.546875 C 199.183594 205.546875 203.851562 210.210938 203.851562 215.964844 Z M 203.851562 215.964844 "/>
<path style=" stroke:none;fill-rule:evenodd;fill:rgb(0%,0%,0%);fill-opacity:1;" d="M 234.191406 204.601562 C 234.191406 210.355469 229.523438 215.019531 223.761719 215.019531 C 218.003906 215.019531 213.332031 210.355469 213.332031 204.601562 C 213.332031 198.84375 218.003906 194.179688 223.761719 194.179688 C 229.523438 194.179688 234.191406 198.84375 234.191406 204.601562 Z M 234.191406 204.601562 "/>
<path style=" stroke:none;fill-rule:evenodd;fill:rgb(0%,0%,0%);fill-opacity:1;" d="M 266.429688 200.8125 C 266.429688 206.566406 261.761719 211.230469 256 211.230469 C 250.238281 211.230469 245.570312 206.566406 245.570312 200.8125 C 245.570312 195.054688 250.238281 190.390625 256 190.390625 C 261.761719 190.390625 266.429688 195.054688 266.429688 200.8125 Z M 266.429688 200.8125 "/>
<path style=" stroke:none;fill-rule:evenodd;fill:rgb(0%,0%,0%);fill-opacity:1;" d="M 298.667969 204.601562 C 298.667969 210.355469 293.996094 215.019531 288.238281 215.019531 C 282.476562 215.019531 277.808594 210.355469 277.808594 204.601562 C 277.808594 198.84375 282.476562 194.179688 288.238281 194.179688 C 293.996094 194.179688 298.667969 198.84375 298.667969 204.601562 Z M 298.667969 204.601562 "/>
<path style=" stroke:none;fill-rule:evenodd;fill:rgb(0%,0%,0%);fill-opacity:1;" d="M 329.007812 215.964844 C 329.007812 221.722656 324.339844 226.386719 318.578125 226.386719 C 312.816406 226.386719 308.148438 221.722656 308.148438 215.964844 C 308.148438 210.210938 312.816406 205.546875 318.578125 205.546875 C 324.339844 205.546875 329.007812 210.210938 329.007812 215.964844 Z M 329.007812 215.964844 "/>
<path style="fill-rule:evenodd;fill:rgb(0%,0%,0%);fill-opacity:1;stroke-width:1.5;stroke-linecap:butt;stroke-linejoin:round;stroke:rgb(0%,0%,0%);stroke-opacity:1;stroke-miterlimit:4;" d="M 9.000206 26.00016 C 17.499504 24.500092 30.000229 24.500092 35.999794 26.00016 L 38.499527 13.499588 L 31.000328 25.000115 L 30.699577 10.900499 L 25.500298 24.500092 L 22.5 10.000458 L 19.499702 24.500092 L 14.300423 10.900499 L 13.999672 25.000115 L 6.500473 13.499588 Z M 9.000206 26.00016 " transform="matrix(3.792593,0,0,3.788889,170.666667,170.5)"/>
<path style="fill-rule:evenodd;fill:rgb(0%,0%,0%);fill-opacity:1;stroke-width:1.5;stroke-linecap:butt;stroke-linejoin:round;stroke:rgb(0%,0%,0%);stroke-opacity:1;stroke-miterlimit:4;" d="M 9.000206 26.00016 C 9.000206 28.000252 10.49984 28.000252 11.499939 30.000344 C 12.500038 31.500412 12.500038 31.000389 12.000504 33.500504 C 10.49984 34.499519 10.49984 35.999588 10.49984 35.999588 C 9.000206 37.499656 11.000404 38.499702 11.000404 38.499702 C 17.499504 39.499748 27.500496 39.499748 33.999596 38.499702 C 33.999596 38.499702 35.500259 37.499656 33.999596 35.999588 C 33.999596 35.999588 34.50016 34.499519 32.999496 33.500504 C 32.499962 31.000389 32.499962 31.500412 33.500061 30.000344 C 34.50016 28.000252 35.999794 28.000252 35.999794 26.00016 C 27.500496 24.500092 17.499504 24.500092 9.000206 26.00016 Z M 9.000206 26.00016 " transform="matrix(3.792593,0,0,3.788889,170.666667,170.5)"/>
<path style="fill:none;stroke-width:1.5;stroke-linecap:butt;stroke-linejoin:round;stroke:rgb(0%,0%,0%);stroke-opacity:1;stroke-miterlimit:4;" d="M 11.000404 38.499702 C 18.448105 41.090543 26.551895 41.090543 33.999596 38.499702 " transform="matrix(3.792593,0,0,3.788889,170.666667,170.5)"/>
<path style="fill:none;stroke-width:1.5;stroke-linecap:round;stroke-linejoin:round;stroke:rgb(100%,100%,100%);stroke-opacity:1;stroke-miterlimit:4;" d="M 11.000404 29.000298 C 18.448105 26.409457 26.551895 26.409457 33.999596 29.000298 " transform="matrix(3.792593,0,0,3.788889,170.666667,170.5)"/>
<path style="fill:none;stroke-width:1.5;stroke-linecap:round;stroke-linejoin:round;stroke:rgb(100%,100%,100%);stroke-opacity:1;stroke-miterlimit:4;" d="M 12.500038 31.500412 L 32.499962 31.500412 " transform="matrix(3.792593,0,0,3.788889,170.666667,170.5)"/>
<path style="fill:none;stroke-width:1.5;stroke-linecap:round;stroke-linejoin:round;stroke:rgb(100%,100%,100%);stroke-opacity:1;stroke-miterlimit:4;" d="M 11.499939 34.499519 C 18.642769 36.864576 26.357231 36.864576 33.500061 34.499519 " transform="matrix(3.792593,0,0,3.788889,170.666667,170.5)"/>
<path style="fill:none;stroke-width:1.5;stroke-linecap:round;stroke-linejoin:round;stroke:rgb(100%,100%,100%);stroke-opacity:1;stroke-miterlimit:4;" d="M 10.49984 37.499656 C 18.250351 40.328652 26.749649 40.328652 34.50016 37.499656 " transform="matrix(3.792593,0,0,3.788889,170.666667,170.5)"/>
<path style="fill-rule:evenodd;fill:rgb(0%,0%,0%);fill-opacity:1;stroke-width:1.5;stroke-linecap:butt;stroke-linejoin:round;stroke:rgb(0%,0%,0%);stroke-opacity:1;stroke-miterlimit:4;" d="M 8.999519 35.999588 C 12.390175 35.030471 19.109688 36.429504 22.500343 33.999496 C 25.889969 36.429504 32.610512 35.030471 36.000137 35.999588 C 36.000137 35.999588 37.650146 36.539819 39.000435 37.999679 C 38.319626 38.969827 37.350426 38.990446 36.000137 38.499702 C 32.610512 37.529555 25.889969 38.959517 22.500343 37.499656 C 19.109688 38.959517 12.390175 37.529555 8.999519 38.499702 C 7.646141 38.990446 6.676941 38.969827 6.000252 37.999679 C 7.35363 36.060415 8.999519 35.999588 8.999519 35.999588 Z M 8.999519 35.999588 " transform="matrix(3.792593,0,0,3.788889,341.333333,170.5)"/>
<path style="fill-rule:evenodd;fill:rgb(0%,0%,0%);fill-opacity:1;stroke-width:1.5;stroke-linecap:butt;stroke-linejoin:round;stroke:rgb(0%,0%,0%);stroke-opacity:1;stroke-miterlimit:4;" d="M 15.000114 32.000435 C 17.499847 34.499519 27.499809 34.499519 29.999542 32.000435 C 30.500107 30.500367 29.999542 30.000344 29.999542 30.000344 C 29.999542 27.500229 27.499809 26.00016 27.499809 26.00016 C 32.99984 24.500092 33.500404 14.499633 22.500343 10.500481 C 11.500282 14.499633 11.999817 24.500092 17.499847 26.00016 C 17.499847 26.00016 15.000114 27.500229 15.000114 30.000344 C 15.000114 30.000344 14.49955 30.500367 15.000114 32.000435 Z M 15.000114 32.000435 " transform="matrix(3.792593,0,0,3.788889,341.333333,170.5)"/>
<path style="fill-rule:evenodd;fill:rgb(0%,0%,0%);fill-opacity:1;stroke-width:1.5;stroke-linecap:butt;stroke-linejoin:round;stroke:rgb(0%,0%,0%);stroke-opacity:1;stroke-miterlimit:4;" d="M 25.000076 8.000367 C 25.000076 9.380842 23.880501 10.500481 22.500343 10.500481 C 21.119156 10.500481 19.99958 9.380842 19.99958 8.000367 C 19.99958 6.61886 21.119156 5.500252 22.500343 5.500252 C 23.880501 5.500252 25.000076 6.61886 25.000076 8.000367 Z M 25.000076 8.000367 " transform="matrix(3.792593,0,0,3.788889,341.333333,170.5)"/>
<path style="fill:none;stroke-width:1.5;stroke-linecap:round;stroke-linejoin:miter;stroke:rgb(100%,100%,100%);stroke-opacity:1;stroke-miterlimit:4;" d="M 17.499847 26.00016 L 27.499809 26.00016 M 15.000114 30.000344 L 29.999542 30.000344 M 22.500343 15.499679 L 22.500343 20.499908 M 19.99958 17.999794 L 25.000076 17.999794 " transform="matrix(3.792593,0,0,3.788889,341.333333,170.5)"/>
<path style="fill-rule:evenodd;fill:rgb(0%,0%,0%);fill-opacity:1;stroke-width:1.5;stroke-linecap:round;stroke-linejoin:round;stroke:rgb(0%,0%,0%);stroke-opacity:1;stroke-miterlimit:4;" d="M 22.000122 10.000458 C 32.499619 11.000504 38.500214 17.999794 37.999649 38.999725 L 15.000458 38.999725 C 15.000458 30.000344 25.00042 32.500458 23.000221 17.999794 " transform="matrix(3.792593,0,0,3.788889,512,170.5)"/>
<path style="fill-rule:evenodd;fill:rgb(0%,0%,0%);fill-opacity:1;stroke-width:1.5;stroke-linecap:round;stroke-linejoin:round;stroke:rgb(0%,0%,0%);stroke-opacity:1;stroke-miterlimit:4;" d="M 24.00032 17.999794 C 24.380379 20.910236 18.449821 25.370235 15.999527 27.000206 C 13.000259 29.000298 13.180504 31.33958 11.000061 31.000389 C 9.957733 30.06014 12.410088 27.960044 11.000061 28.000252 C 9.999962 28.000252 11.189575 29.230205 9.999962 30.000344 C 8.999863 30.000344 5.997505 31.000389 5.999565 26.00016 C 5.999565 24.000069 12.00016 13.999611 12.00016 13.999611 C 12.00016 13.999611 13.890152 12.099523 14.000359 10.500481 C 13.270111 9.50559 13.499794 8.500389 13.499794 7.500344 C 14.499893 6.500298 16.500092 10.000458 16.500092 10.000458 L 18.50029 10.000458 C 18.50029 10.000458 19.279976 8.007583 21.000023 7.000321 C 22.000122 7.000321 22.000122 10.000458 22.000122 10.000458 " transform="matrix(3.792593,0,0,3.788889,512,170.5)"/>
<path style="fill-rule:evenodd;fill:rgb(100%,100%,100%);fill-opacity:1;stroke-width:1.5;stroke-linecap:round;stroke-linejoin:round;stroke:rgb(100%,100%,100%);stroke-opacity:1;stroke-miterlimit:4;" d="M 9.500427 25.500137 C 9.500427 25.776439 9.275894 26.00016 8.999863 26.00016 C 8.723831 26.00016 8.500328 25.776439 8.500328 25.500137 C 8.500328 25.223836 8.723831 25.000115 8.999863 25.000115 C 9.275894 25.000115 9.500427 25.223836 9.500427 25.500137 Z M 9.500427 25.500137 " transform="matrix(3.792593,0,0,3.788889,512,170.5)"/>
<path style="fill-rule:evenodd;fill:rgb(100%,100%,100%);fill-opacity:1;stroke-width:1.5;stroke-linecap:round;stroke-linejoin:round;stroke:rgb(100%,100%,100%);stroke-opacity:1;stroke-miterlimit:4;" d="M 15.000545 15.499924 C 14.999867 16.328905 14.77594 16.999871 14.49992 16.999709 C 14.2239 16.999547 14.000572 16.328471 14.000357 15.500005 C 14.000143 14.67154 14.223554 13.99968 14.499574 13.999842 C 14.775595 14.000005 15.00033 14.671458 15.000545 15.499924 Z M 15.000545 15.499924 " transform="matrix(3.284385,1.894444,-1.896296,3.281178,548.7616,150.900078)"/>
<path style=" stroke:none;fill-rule:evenodd;fill:rgb(100%,100%,100%);fill-opacity:1;" d="M 605.109375 209.90625 L 603.402344 215.398438 L 605.296875 215.964844 C 617.246094 219.753906 626.726562 225.402344 635.257812 241.542969 C 643.792969 257.683594 647.585938 280.605469 645.6875 318.265625 L 645.5 320.160156 L 654.03125 320.160156 L 654.222656 318.265625 C 656.117188 280.152344 650.882812 254.425781 641.894531 237.410156 C 632.90625 220.398438 619.9375 212.253906 607.042969 210.285156 Z M 605.109375 209.90625 "/>
<path style="fill-rule:evenodd;fill:rgb(0%,0%,0%);fill-opacity:1;stroke-width:1.5;stroke-linecap:butt;stroke-linejoin:round;stroke:rgb(0%,0%,0%);stroke-opacity:1;stroke-miterlimit:4;" d="M 9.000206 38.999725 L 35.999794 38.999725 L 35.999794 35.999588 L 9.000206 35.999588 Z M 9.000206 38.999725 " transform="matrix(3.792593,0,0,3.788889,682.666667,170.5)"/>
<path style="fill-rule:evenodd;fill:rgb(0%,0%,0%);fill-opacity:1;stroke-width:1.5;stroke-linecap:butt;stroke-linejoin:round;stroke:rgb(0%,0%,0%);stroke-opacity:1;stroke-miterlimit:4;" d="M 12.500038 32.000435 L 13.999672 29.500321 L 31.000328 29.500321 L 32.499962 32.000435 Z M 12.500038 32.000435 " transform="matrix(3.792593,0,0,3.788889,682.666667,170.5)"/>
<path style="fill-rule:evenodd;fill:rgb(0%,0%,0%);fill-opacity:1;stroke-width:1.5;stroke-linecap:butt;stroke-linejoin:round;stroke:rgb(0%,0%,0%);stroke-opacity:1;stroke-miterlimit:4;" d="M 12.000504 35.999588 L 12.000504 32.000435 L 32.999496 32.000435 L 32.999496 35.999588 Z M 12.000504 35.999588 " transform="matrix(3.792593,0,0,3.788889,682.666667,170.5)"/>
<path style="fill-rule:evenodd;fill:rgb(0%,0%,0%);fill-opacity:1;stroke-width:1.5;stroke-linecap:butt;stroke-linejoin:miter;stroke:rgb(0%,0%,0%);stroke-opacity:1;stroke-miterlimit:4;" d="M 13.999672 29.500321 L 13.999672 16.499725 L 31.000328 16.499725 L 31.000328 29.500321 Z M 13.999672 29.500321 " transform="matrix(3.792593,0,0,3.788889,682.666667,170.5)"/>
<path style="fill-rule:evenodd;fill:rgb(0%,0%,0%);fill-opacity:1;stroke-width:1.5;stroke-linecap:butt;stroke-linejoin:round;stroke:rgb(0%,0%,0%);stroke-opacity:1;stroke-miterlimit:4;" d="M 13.999672 16.499725 L 11.000404 13.999611 L 33.999596 13.999611 L 31.000328 16.499725 Z M 13.999672 16.499725 " transform="matrix(3.792593,0,0,3.788889,682.666667,170.5)"/>
<path style="fill-rule:evenodd;fill:rgb(0%,0%,0%);fill-opacity:1;stroke-width:1.5;stroke-linecap:butt;stroke-linejoin:round;stroke:rgb(0%,0%,0%);stroke-opacity:1;stroke-miterlimit:4;" d="M 11.000404 13.999611 L 11.000404 9.000412 L 14.999771 9.000412 L 14.999771 11.000504 L 20.000267 11.000504 L 20.000267 9.000412 L 24.999733 9.000412 L 24.999733 11.000504 L 30.000229 11.000504 L 30.000229 9.000412 L 33.999596 9.000412 L 33.999596 13.999611 Z M 11.000404 13.999611 " transform="matrix(3.792593,0,0,3.788889,682.666667,170.5)"/>
<path style="fill:none;stroke-width:1;stroke-linecap:round;stroke-linejoin:miter;stroke:rgb(100%,100%,100%);stroke-opacity:1;stroke-miterlimit:4;" d="M 12.000504 35.499565 L 32.999496 35.499565 " transform="matrix(3.792593,0,0,3.788889,682.666667,170.5)"/>
<path style="fill:none;stroke-width:1;stroke-linecap:round;stroke-linejoin:miter;stroke:rgb(100%,100%,100%);stroke-opacity:1;stroke-miterlimit:4;" d="M 12.999573 31.500412 L 32.000427 31.500412 " transform="matrix(3.792593,0,0,3.788889,682.666667,170.5)"/>
<path style="fill:none;stroke-width:1;stroke-linecap:round;stroke-linejoin:miter;stroke:rgb(100%,100%,100%);stroke-opacity:1;stroke-miterlimit:4;" d="M 13.999672 29.500321 L 31.000328 29.500321 " transform="matrix(3.792593,0,0,3.788889,682.666667,170.5)"/>
<path style="fill:none;stroke-width:1;stroke-linecap:round;stroke-linejoin:miter;stroke:rgb(100%,100%,100%);stroke-opacity:1;stroke-miterlimit:4;" d="M 13.999672 16.499725 L 31.000328 16.499725 " transform="matrix(3.792593,0,0,3.788889,682.666667,170.5)"/>
<path style="fill:none;stroke-width:1;stroke-linecap:round;stroke-linejoin:miter;stroke:rgb(100%,100%,100%);stroke-opacity:1;stroke-miterlimit:4;" d="M 11.000404 13.999611 L 33.999596 13.999611 " transform="matrix(3.792593,0,0,3.788889,682.666667,170.5)"/>
<path style="fill-rule:nonzero;fill:rgb(0%,0%,0%);fill-opacity:1;stroke-width:1.5;stroke-linecap:round;stroke-linejoin:miter;stroke:rgb(0%,0%,0%);stroke-opacity:1;stroke-miterlimit:4;" d="M 21.999779 9.000412 C 19.790497 9.000412 18.000412 10.790185 18.000412 12.999565 C 18.000412 13.890327 18.289833 14.709952 18.780098 15.380086 C 16.830368 16.499725 15.499649 18.589512 15.499649 20.999931 C 15.499649 23.029921 16.44001 24.840313 17.909775 26.030059 C 14.910507 27.089901 10.500183 31.579797 10.500183 39.499748 L 33.500404 39.499748 C 33.500404 31.579797 29.09008 27.089901 26.089783 26.030059 C 27.559547 24.840313 28.499908 23.029921 28.499908 20.999931 C 28.499908 18.589512 27.170219 16.499725 25.22049 15.380086 C 25.709724 14.709952 26.000175 13.890327 26.000175 12.999565 C 26.000175 10.790185 24.210091 9.000412 21.999779 9.000412 Z M 21.999779 9.000412 " transform="matrix(3.792593,0,0,3.788889,853.333333,170.5)"/>
</g>
</svg>
