<?xml version="1.0" encoding="UTF-8"?>
<svg xmlns="http://www.w3.org/2000/svg" xmlns:xlink="http://www.w3.org/1999/xlink" width="1024pt" height="1024pt" viewBox="0 0 1024 1024" version="1.1">
<g id="surface1">
<path style="fill:none;stroke-width:1.5;stroke-linecap:round;stroke-linejoin:miter;stroke:rgb(0%,0%,0%);stroke-opacity:1;stroke-miterlimit:4;" d="M 22.5 11.630058 L 22.5 6.00008 " transform="matrix(22.755556,0,0,22.755556,0,0)"/>
<path style="fill:none;stroke-width:1.5;stroke-linecap:round;stroke-linejoin:miter;stroke:rgb(0%,0%,0%);stroke-opacity:1;stroke-miterlimit:4;" d="M 19.999924 7.999935 L 25.000076 7.999935 " transform="matrix(22.755556,0,0,22.755556,0,0)"/>
<path style="fill-rule:evenodd;fill:rgb(100%,100%,100%);fill-opacity:1;stroke-width:1.5;stroke-linecap:butt;stroke-linejoin:miter;stroke:rgb(0%,0%,0%);stroke-opacity:1;stroke-miterlimit:4;" d="M 22.5 25.000076 C 22.5 25.000076 26.999931 17.500019 25.499954 14.500065 C 25.499954 14.500065 24.500027 11.999989 22.5 11.999989 C 20.499973 11.999989 19.500046 14.500065 19.500046 14.500065 C 18.000069 17.500019 22.5 25.000076 22.5 25.000076 " transform="matrix(22.755556,0,0,22.755556,0,0)"/>
<path style="fill-rule:evenodd;fill:rgb(100%,100%,100%);fill-opacity:1;stroke-width:1.5;stroke-linecap:round;stroke-linejoin:round;stroke:rgb(0%,0%,0%);stroke-opacity:1;stroke-miterlimit:4;" d="M 11.499939 37.000065 C 16.999969 40.500069 26.999931 40.500069 32.499962 37.000065 L 32.499962 30.000057 C 32.499962 30.000057 41.499996 25.499954 38.500042 19.500046 C 34.499989 12.999916 25.000076 16.000042 22.5 23.499928 L 22.5 26.999931 L 22.5 23.499928 C 18.999996 16.000042 9.500084 12.999916 6.499958 19.500046 C 3.500004 25.499954 11.499939 29.500008 11.499939 29.500008 Z M 11.499939 37.000065 " transform="matrix(22.755556,0,0,22.755556,0,0)"/>
<path style="fill:none;stroke-width:1.5;stroke-linecap:round;stroke-linejoin:round;stroke:rgb(0%,0%,0%);stroke-opacity:1;stroke-miterlimit:4;" d="M 11.499939 30.000057 C 16.999969 26.999931 26.999931 26.999931 32.499962 30.000057 " transform="matrix(22.755556,0,0,22.755556,0,0)"/>
<path style="fill:none;stroke-width:1.5;stroke-linecap:round;stroke-linejoin:round;stroke:rgb(0%,0%,0%);stroke-opacity:1;stroke-miterlimit:4;" d="M 11.499939 33.500061 C 16.999969 30.499935 26.999931 30.499935 32.499962 33.500061 " transform="matrix(22.755556,0,0,22.755556,0,0)"/>
<path style="fill:none;stroke-width:1.5;stroke-linecap:round;stroke-linejoin:round;stroke:rgb(0%,0%,0%);stroke-opacity:1;stroke-miterlimit:4;" d="M 11.499939 37.000065 C 16.999969 33.999939 26.999931 33.999939 32.499962 37.000065 " transform="matrix(22.755556,0,0,22.755556,0,0)"/>
</g>
</svg>
