<?xml version="1.0" encoding="UTF-8"?>
<svg xmlns="http://www.w3.org/2000/svg" xmlns:xlink="http://www.w3.org/1999/xlink" width="1024pt" height="1024pt" viewBox="0 0 1024 1024" version="1.1">
<g id="surface1">
<path style="fill-rule:evenodd;fill:rgb(0%,0%,0%);fill-opacity:1;stroke-width:1.5;stroke-linecap:round;stroke-linejoin:round;stroke:rgb(0%,0%,0%);stroke-opacity:1;stroke-miterlimit:4;" d="M 21.99995 9.999962 C 32.499962 11.000061 38.500042 18.000069 37.999992 38.99992 L 14.999943 38.99992 C 14.999943 30.000057 25.000076 32.499962 23.00005 18.000069 " transform="matrix(22.755556,0,0,22.755556,0,0)"/>
<path style="fill-rule:evenodd;fill:rgb(0%,0%,0%);fill-opacity:1;stroke-width:1.5;stroke-linecap:round;stroke-linejoin:round;stroke:rgb(0%,0%,0%);stroke-opacity:1;stroke-miterlimit:4;" d="M 23.999977 18.000069 C 24.380035 20.910072 18.449993 25.370007 16.000042 26.999931 C 12.999916 28.999958 13.179989 31.340046 11.000061 30.999985 C 9.958076 30.059967 12.409916 27.960033 11.000061 28.000031 C 9.999962 28.000031 11.189919 29.229984 9.999962 30.000057 C 9.000034 30.000057 5.99699 30.999985 6.00008 26.000004 C 6.00008 23.999977 11.999989 14.000015 11.999989 14.000015 C 11.999989 14.000015 13.88998 12.100067 14.000015 10.500011 C 13.269939 9.50592 13.499966 8.499985 13.499966 7.500057 C 14.500065 6.499958 16.49992 9.999962 16.49992 9.999962 L 18.499947 9.999962 C 18.499947 9.999962 19.279976 8.008003 21.000023 7.000008 C 21.99995 7.000008 21.99995 9.999962 21.99995 9.999962 " transform="matrix(22.755556,0,0,22.755556,0,0)"/>
<path style="fill-rule:evenodd;fill:rgb(100%,100%,100%);fill-opacity:1;stroke-width:1.5;stroke-linecap:round;stroke-linejoin:round;stroke:rgb(100%,100%,100%);stroke-opacity:1;stroke-miterlimit:4;" d="M 9.500084 25.499954 C 9.500084 25.776157 9.276066 26.000004 9.000034 26.000004 C 8.723831 26.000004 8.499985 25.776157 8.499985 25.499954 C 8.499985 25.223923 8.723831 25.000076 9.000034 25.000076 C 9.276066 25.000076 9.500084 25.223923 9.500084 25.499954 Z M 9.500084 25.499954 " transform="matrix(22.755556,0,0,22.755556,0,0)"/>
<path style="fill-rule:evenodd;fill:rgb(100%,100%,100%);fill-opacity:1;stroke-width:1.5;stroke-linecap:round;stroke-linejoin:round;stroke:rgb(100%,100%,100%);stroke-opacity:1;stroke-miterlimit:4;" d="M 14.999961 15.499943 C 15.00002 16.328483 14.776231 17.00003 14.500043 16.999922 C 14.223793 17.000048 13.999968 16.328455 13.999995 15.500065 C 13.999936 14.671525 14.223874 13.999892 14.500062 14 C 14.776163 13.999959 14.999988 14.671552 14.999961 15.499943 Z M 14.999961 15.499943 " transform="matrix(19.706311,11.377778,-11.377778,19.706311,220.5696,-117.714489)"/>
<path style=" stroke:none;fill-rule:evenodd;fill:rgb(100%,100%,100%);fill-opacity:1;" d="M 558.648438 236.65625 L 548.410156 269.652344 L 559.785156 273.066406 C 631.464844 295.820312 688.355469 329.726562 739.554688 426.667969 C 790.753906 523.605469 813.511719 661.277344 802.132812 887.464844 L 800.996094 898.84375 L 852.195312 898.84375 L 853.332031 887.464844 C 864.710938 658.546875 833.308594 504.035156 779.378906 401.863281 C 725.445312 299.691406 647.625 250.765625 570.253906 238.933594 Z M 558.648438 236.65625 "/>
</g>
</svg>
