<?xml version="1.0" encoding="UTF-8"?>
<svg xmlns="http://www.w3.org/2000/svg" xmlns:xlink="http://www.w3.org/1999/xlink" width="1024pt" height="1024pt" viewBox="0 0 1024 1024" version="1.1">
<g id="surface1">
<path style="fill-rule:nonzero;fill:rgb(0%,0%,0%);fill-opacity:1;stroke-width:1.5;stroke-linecap:round;stroke-linejoin:miter;stroke:rgb(0%,0%,0%);stroke-opacity:1;stroke-miterlimit:4;" d="M 21.99995 9.000034 C 19.789982 9.000034 18.000069 10.789948 18.000069 12.999916 C 18.000069 13.88998 18.290005 14.710007 18.779926 15.380001 C 16.830025 16.49992 15.499992 18.590069 15.499992 21.000023 C 15.499992 23.029919 16.44001 24.839916 17.909946 26.030045 C 14.909992 27.090054 10.500011 31.580029 10.500011 39.499969 L 33.500061 39.499969 C 33.500061 31.580029 29.09008 27.090054 26.089954 26.030045 C 27.560062 24.839916 28.50008 23.029919 28.50008 21.000023 C 28.50008 18.590069 27.170048 16.49992 25.219975 15.380001 C 25.710068 14.710007 26.000004 13.88998 26.000004 12.999916 C 26.000004 10.789948 24.209919 9.000034 21.99995 9.000034 Z M 21.99995 9.000034 " transform="matrix(22.755556,0,0,22.755556,0,0)"/>
</g>
</svg>
