<?xml version="1.0" encoding="UTF-8"?>
<svg xmlns="http://www.w3.org/2000/svg" xmlns:xlink="http://www.w3.org/1999/xlink" width="1024pt" height="1024pt" viewBox="0 0 1024 1024" version="1.1">
<g id="surface1">
<path style="fill-rule:evenodd;fill:rgb(100%,100%,100%);fill-opacity:1;stroke-width:1.5;stroke-linecap:round;stroke-linejoin:round;stroke:rgb(0%,0%,0%);stroke-opacity:1;stroke-miterlimit:4;" d="M 8.999935 12.999989 C 8.999935 14.10463 8.104549 15.000015 7.00008 15.000015 C 5.895439 15.000015 5.000053 14.10463 5.000053 12.999989 C 5.000053 11.895348 5.895439 10.999962 7.00008 10.999962 C 8.104549 10.999962 8.999935 11.895348 8.999935 12.999989 Z M 8.999935 12.999989 " transform="matrix(22.755556,0,0,22.755556,-22.755556,-22.755556)"/>
<path style="fill-rule:evenodd;fill:rgb(100%,100%,100%);fill-opacity:1;stroke-width:1.5;stroke-linecap:round;stroke-linejoin:round;stroke:rgb(0%,0%,0%);stroke-opacity:1;stroke-miterlimit:4;" d="M 9.000027 13.000057 C 9.000027 14.104527 8.104641 15.000084 7 15.000084 C 5.895359 15.000084 4.999973 14.104527 4.999973 13.000057 C 4.999973 11.895416 5.895359 11.000031 7 11.000031 C 8.104641 11.000031 9.000027 11.895416 9.000027 13.000057 Z M 9.000027 13.000057 " transform="matrix(22.755556,0,0,22.755556,352.711111,-125.155556)"/>
<path style="fill-rule:evenodd;fill:rgb(100%,100%,100%);fill-opacity:1;stroke-width:1.5;stroke-linecap:round;stroke-linejoin:round;stroke:rgb(0%,0%,0%);stroke-opacity:1;stroke-miterlimit:4;" d="M 8.999947 12.999989 C 8.999947 14.10463 8.104561 15.000015 6.99992 15.000015 C 5.895451 15.000015 5.000065 14.10463 5.000065 12.999989 C 5.000065 11.895348 5.895451 10.999962 6.99992 10.999962 C 8.104561 10.999962 8.999947 11.895348 8.999947 12.999989 Z M 8.999947 12.999989 " transform="matrix(22.755556,0,0,22.755556,728.177778,-22.755556)"/>
<path style="fill-rule:evenodd;fill:rgb(100%,100%,100%);fill-opacity:1;stroke-width:1.5;stroke-linecap:round;stroke-linejoin:round;stroke:rgb(0%,0%,0%);stroke-opacity:1;stroke-miterlimit:4;" d="M 9.000042 12.999985 C 9.000042 14.104626 8.104485 15.000011 7.000015 15.000011 C 5.895374 15.000011 4.999989 14.104626 4.999989 12.999985 C 4.999989 11.895515 5.895374 10.999958 7.000015 10.999958 C 8.104485 10.999958 9.000042 11.895515 9.000042 12.999985 Z M 9.000042 12.999985 " transform="matrix(22.755556,0,0,22.755556,159.288889,-102.4)"/>
<path style="fill-rule:evenodd;fill:rgb(100%,100%,100%);fill-opacity:1;stroke-width:1.5;stroke-linecap:round;stroke-linejoin:round;stroke:rgb(0%,0%,0%);stroke-opacity:1;stroke-miterlimit:4;" d="M 9.000011 13.000034 C 9.000011 14.104504 8.104626 15.000061 6.999985 15.000061 C 5.895515 15.000061 4.999958 14.104504 4.999958 13.000034 C 4.999958 11.895393 5.895515 11.000008 6.999985 11.000008 C 8.104626 11.000008 9.000011 11.895393 9.000011 13.000034 Z M 9.000011 13.000034 " transform="matrix(22.755556,0,0,22.755556,546.133333,-91.022222)"/>
<path style="fill-rule:evenodd;fill:rgb(100%,100%,100%);fill-opacity:1;stroke-width:1.5;stroke-linecap:butt;stroke-linejoin:round;stroke:rgb(0%,0%,0%);stroke-opacity:1;stroke-miterlimit:4;" d="M 9.000034 26.000004 C 17.500019 24.500027 30.000057 24.500027 35.999966 26.000004 L 37.999992 14.000015 L 30.999985 25.000076 L 30.999985 11.000061 L 25.499954 24.500027 L 22.5 9.500084 L 19.500046 24.500027 L 14.000015 10.500011 L 14.000015 25.000076 L 7.000008 14.000015 Z M 9.000034 26.000004 " transform="matrix(22.755556,0,0,22.755556,0,0)"/>
<path style="fill-rule:evenodd;fill:rgb(100%,100%,100%);fill-opacity:1;stroke-width:1.5;stroke-linecap:butt;stroke-linejoin:round;stroke:rgb(0%,0%,0%);stroke-opacity:1;stroke-miterlimit:4;" d="M 9.000034 26.000004 C 9.000034 28.000031 10.500011 28.000031 11.499939 30.000057 C 12.500038 31.500034 12.500038 30.999985 11.999989 33.500061 C 10.500011 34.499989 10.500011 35.999966 10.500011 35.999966 C 9.000034 37.499943 11.000061 38.500042 11.000061 38.500042 C 17.500019 39.499969 27.499981 39.499969 33.999939 38.500042 C 33.999939 38.500042 35.499916 37.499943 33.999939 35.999966 C 33.999939 35.999966 34.499989 34.499989 33.000011 33.500061 C 32.499962 30.999985 32.499962 31.500034 33.500061 30.000057 C 34.499989 28.000031 35.999966 28.000031 35.999966 26.000004 C 27.499981 24.500027 17.500019 24.500027 9.000034 26.000004 Z M 9.000034 26.000004 " transform="matrix(22.755556,0,0,22.755556,0,0)"/>
<path style="fill:none;stroke-width:1.5;stroke-linecap:round;stroke-linejoin:round;stroke:rgb(0%,0%,0%);stroke-opacity:1;stroke-miterlimit:4;" d="M 11.499939 30.000057 C 14.999943 28.999958 30.000057 28.999958 33.500061 30.000057 " transform="matrix(22.755556,0,0,22.755556,0,0)"/>
<path style="fill:none;stroke-width:1.5;stroke-linecap:round;stroke-linejoin:round;stroke:rgb(0%,0%,0%);stroke-opacity:1;stroke-miterlimit:4;" d="M 11.999989 33.500061 C 18.000069 32.499962 26.999931 32.499962 33.000011 33.500061 " transform="matrix(22.755556,0,0,22.755556,0,0)"/>
</g>
</svg>
