<?xml version="1.0" encoding="UTF-8"?>
<svg xmlns="http://www.w3.org/2000/svg" xmlns:xlink="http://www.w3.org/1999/xlink" width="1024pt" height="1024pt" viewBox="0 0 1024 1024" version="1.1">
<g id="surface1">
<path style=" stroke:none;fill-rule:evenodd;fill:rgb(0%,0%,0%);fill-opacity:1;" d="M 199.109375 273.066406 C 199.109375 307.628906 171.09375 335.644531 136.535156 335.644531 C 101.972656 335.644531 73.957031 307.628906 73.957031 273.066406 C 73.957031 238.507812 101.972656 210.488281 136.535156 210.488281 C 171.09375 210.488281 199.109375 238.507812 199.109375 273.066406 Z M 199.109375 273.066406 "/>
<path style=" stroke:none;fill-rule:evenodd;fill:rgb(0%,0%,0%);fill-opacity:1;" d="M 381.15625 204.800781 C 381.15625 239.359375 353.136719 267.378906 318.578125 267.378906 C 284.015625 267.378906 256 239.359375 256 204.800781 C 256 170.238281 284.015625 142.222656 318.578125 142.222656 C 353.136719 142.222656 381.15625 170.238281 381.15625 204.800781 Z M 381.15625 204.800781 "/>
<path style=" stroke:none;fill-rule:evenodd;fill:rgb(0%,0%,0%);fill-opacity:1;" d="M 574.578125 182.042969 C 574.578125 216.605469 546.5625 244.621094 512 244.621094 C 477.4375 244.621094 449.421875 216.605469 449.421875 182.042969 C 449.421875 147.484375 477.4375 119.464844 512 119.464844 C 546.5625 119.464844 574.578125 147.484375 574.578125 182.042969 Z M 574.578125 182.042969 "/>
<path style=" stroke:none;fill-rule:evenodd;fill:rgb(0%,0%,0%);fill-opacity:1;" d="M 768 204.800781 C 768 239.359375 739.984375 267.378906 705.421875 267.378906 C 670.863281 267.378906 642.84375 239.359375 642.84375 204.800781 C 642.84375 170.238281 670.863281 142.222656 705.421875 142.222656 C 739.984375 142.222656 768 170.238281 768 204.800781 Z M 768 204.800781 "/>
<path style=" stroke:none;fill-rule:evenodd;fill:rgb(0%,0%,0%);fill-opacity:1;" d="M 950.042969 273.066406 C 950.042969 307.628906 922.027344 335.644531 887.464844 335.644531 C 852.90625 335.644531 824.890625 307.628906 824.890625 273.066406 C 824.890625 238.507812 852.90625 210.488281 887.464844 210.488281 C 922.027344 210.488281 950.042969 238.507812 950.042969 273.066406 Z M 950.042969 273.066406 "/>
<path style="fill-rule:evenodd;fill:rgb(0%,0%,0%);fill-opacity:1;stroke-width:1.5;stroke-linecap:butt;stroke-linejoin:round;stroke:rgb(0%,0%,0%);stroke-opacity:1;stroke-miterlimit:4;" d="M 9.000034 26.000004 C 17.500019 24.500027 30.000057 24.500027 35.999966 26.000004 L 38.500042 13.499966 L 30.999985 25.000076 L 30.699921 10.899982 L 25.499954 24.500027 L 22.5 9.999962 L 19.500046 24.500027 L 14.300079 10.899982 L 14.000015 25.000076 L 6.499958 13.499966 Z M 9.000034 26.000004 " transform="matrix(22.755556,0,0,22.755556,0,0)"/>
<path style="fill-rule:evenodd;fill:rgb(0%,0%,0%);fill-opacity:1;stroke-width:1.5;stroke-linecap:butt;stroke-linejoin:round;stroke:rgb(0%,0%,0%);stroke-opacity:1;stroke-miterlimit:4;" d="M 9.000034 26.000004 C 9.000034 28.000031 10.500011 28.000031 11.499939 30.000057 C 12.500038 31.500034 12.500038 30.999985 11.999989 33.500061 C 10.500011 34.499989 10.500011 35.999966 10.500011 35.999966 C 9.000034 37.499943 11.000061 38.500042 11.000061 38.500042 C 17.500019 39.499969 27.499981 39.499969 33.999939 38.500042 C 33.999939 38.500042 35.499916 37.499943 33.999939 35.999966 C 33.999939 35.999966 34.499989 34.499989 33.000011 33.500061 C 32.499962 30.999985 32.499962 31.500034 33.500061 30.000057 C 34.499989 28.000031 35.999966 28.000031 35.999966 26.000004 C 27.499981 24.500027 17.500019 24.500027 9.000034 26.000004 Z M 9.000034 26.000004 " transform="matrix(22.755556,0,0,22.755556,0,0)"/>
<path style="fill:none;stroke-width:1.5;stroke-linecap:butt;stroke-linejoin:round;stroke:rgb(0%,0%,0%);stroke-opacity:1;stroke-miterlimit:4;" d="M 11.000061 38.500042 C 18.447762 41.090927 26.552238 41.090927 33.999939 38.500042 " transform="matrix(22.755556,0,0,22.755556,0,0)"/>
<path style="fill:none;stroke-width:1.5;stroke-linecap:round;stroke-linejoin:round;stroke:rgb(100%,100%,100%);stroke-opacity:1;stroke-miterlimit:4;" d="M 11.000061 28.999958 C 18.447762 26.409073 26.552238 26.409073 33.999939 28.999958 " transform="matrix(22.755556,0,0,22.755556,0,0)"/>
<path style="fill:none;stroke-width:1.5;stroke-linecap:round;stroke-linejoin:round;stroke:rgb(100%,100%,100%);stroke-opacity:1;stroke-miterlimit:4;" d="M 12.500038 31.500034 L 32.499962 31.500034 " transform="matrix(22.755556,0,0,22.755556,0,0)"/>
<path style="fill:none;stroke-width:1.5;stroke-linecap:round;stroke-linejoin:round;stroke:rgb(100%,100%,100%);stroke-opacity:1;stroke-miterlimit:4;" d="M 11.499939 34.499989 C 18.642769 36.864624 26.357231 36.864624 33.500061 34.499989 " transform="matrix(22.755556,0,0,22.755556,0,0)"/>
<path style="fill:none;stroke-width:1.5;stroke-linecap:round;stroke-linejoin:round;stroke:rgb(100%,100%,100%);stroke-opacity:1;stroke-miterlimit:4;" d="M 10.500011 37.499943 C 18.250008 40.328579 26.749992 40.328579 34.499989 37.499943 " transform="matrix(22.755556,0,0,22.755556,0,0)"/>
</g>
</svg>
