<?xml version="1.0" encoding="UTF-8"?>
<svg xmlns="http://www.w3.org/2000/svg" xmlns:xlink="http://www.w3.org/1999/xlink" width="1024pt" height="1024pt" viewBox="0 0 1024 1024" version="1.1">
<g id="surface1">
<path style="fill-rule:evenodd;fill:rgb(100%,100%,100%);fill-opacity:1;stroke-width:1.5;stroke-linecap:butt;stroke-linejoin:round;stroke:rgb(0%,0%,0%);stroke-opacity:1;stroke-miterlimit:4;" d="M 9.000034 38.99992 L 35.999966 38.99992 L 35.999966 35.999966 L 9.000034 35.999966 Z M 9.000034 38.99992 " transform="matrix(22.755556,0,0,22.755556,0,0)"/>
<path style="fill-rule:evenodd;fill:rgb(100%,100%,100%);fill-opacity:1;stroke-width:1.5;stroke-linecap:butt;stroke-linejoin:round;stroke:rgb(0%,0%,0%);stroke-opacity:1;stroke-miterlimit:4;" d="M 11.999989 35.999966 L 11.999989 32.000084 L 33.000011 32.000084 L 33.000011 35.999966 Z M 11.999989 35.999966 " transform="matrix(22.755556,0,0,22.755556,0,0)"/>
<path style="fill-rule:evenodd;fill:rgb(100%,100%,100%);fill-opacity:1;stroke-width:1.5;stroke-linecap:butt;stroke-linejoin:round;stroke:rgb(0%,0%,0%);stroke-opacity:1;stroke-miterlimit:4;" d="M 11.000061 14.000015 L 11.000061 9.000034 L 14.999943 9.000034 L 14.999943 11.000061 L 19.999924 11.000061 L 19.999924 9.000034 L 25.000076 9.000034 L 25.000076 11.000061 L 30.000057 11.000061 L 30.000057 9.000034 L 33.999939 9.000034 L 33.999939 14.000015 " transform="matrix(22.755556,0,0,22.755556,0,0)"/>
<path style="fill-rule:evenodd;fill:rgb(100%,100%,100%);fill-opacity:1;stroke-width:1.5;stroke-linecap:round;stroke-linejoin:round;stroke:rgb(0%,0%,0%);stroke-opacity:1;stroke-miterlimit:4;" d="M 33.999939 14.000015 L 30.999985 16.999969 L 14.000015 16.999969 L 11.000061 14.000015 " transform="matrix(22.755556,0,0,22.755556,0,0)"/>
<path style="fill-rule:evenodd;fill:rgb(100%,100%,100%);fill-opacity:1;stroke-width:1.5;stroke-linecap:butt;stroke-linejoin:miter;stroke:rgb(0%,0%,0%);stroke-opacity:1;stroke-miterlimit:4;" d="M 30.999985 16.999969 L 30.999985 29.500008 L 14.000015 29.500008 L 14.000015 16.999969 " transform="matrix(22.755556,0,0,22.755556,0,0)"/>
<path style="fill-rule:evenodd;fill:rgb(100%,100%,100%);fill-opacity:1;stroke-width:1.5;stroke-linecap:round;stroke-linejoin:round;stroke:rgb(0%,0%,0%);stroke-opacity:1;stroke-miterlimit:4;" d="M 30.999985 29.500008 L 32.499962 32.000084 L 12.500038 32.000084 L 14.000015 29.500008 " transform="matrix(22.755556,0,0,22.755556,0,0)"/>
<path style="fill:none;stroke-width:1.5;stroke-linecap:round;stroke-linejoin:miter;stroke:rgb(0%,0%,0%);stroke-opacity:1;stroke-miterlimit:4;" d="M 11.000061 14.000015 L 33.999939 14.000015 " transform="matrix(22.755556,0,0,22.755556,0,0)"/>
</g>
</svg>
